<?xml version="1.0" encoding="UTF-8"?>
<!DOCTYPE svg PUBLIC "-//W3C//DTD SVG 1.1//EN" "http://www.w3.org/Graphics/SVG/1.1/DTD/svg11.dtd">
<svg xmlns="http://www.w3.org/2000/svg" version="1.1" width="225px" height="225px" style="shape-rendering:geometricPrecision; text-rendering:geometricPrecision; image-rendering:optimizeQuality; fill-rule:evenodd; clip-rule:evenodd" xmlns:xlink="http://www.w3.org/1999/xlink">
<g><path style="opacity:1" fill="#1e40af" d="M -0.5,-0.5 C 7.5,-0.5 15.5,-0.5 23.5,-0.5C 23.5,2.16667 23.5,4.83333 23.5,7.5C 69.8381,7.16674 116.171,7.50007 162.5,8.5C 161.167,9.5 161.167,10.5 162.5,11.5C 164.045,12.4519 165.712,12.7852 167.5,12.5C 132.443,25.7254 97.2761,38.7254 62,51.5C 44.7272,87.0453 27.7272,122.712 11,158.5C 10.3333,161.5 10.3333,164.5 11,167.5C 18.411,186.316 25.2444,205.316 31.5,224.5C 20.8333,224.5 10.1667,224.5 -0.5,224.5C -0.5,149.5 -0.5,74.5 -0.5,-0.5 Z"/></g>
<g><path style="opacity:1" fill="#1e40af" d="M 23.5,-0.5 C 90.5,-0.5 157.5,-0.5 224.5,-0.5C 224.5,9.83333 224.5,20.1667 224.5,30.5C 210.572,24.2028 196.906,17.3694 183.5,10C 180.833,9.33333 178.167,9.33333 175.5,10C 172.978,11.3409 170.311,12.1743 167.5,12.5C 165.712,12.7852 164.045,12.4519 162.5,11.5C 161.167,10.5 161.167,9.5 162.5,8.5C 116.171,7.50007 69.8381,7.16674 23.5,7.5C 23.5,4.83333 23.5,2.16667 23.5,-0.5 Z"/></g>
<g><path style="opacity:1" fill="#1e3a8a" d="M 224.5,34.5 C 224.5,42.5 224.5,50.5 224.5,58.5C 212.181,45.5107 200.181,32.1774 188.5,18.5C 188.667,18.1667 188.833,17.8333 189,17.5C 200.536,23.8517 212.369,29.5183 224.5,34.5 Z"/></g>
<g><path style="opacity:1" fill="#1e40af" d="M 224.5,71.5 C 224.5,80.1667 224.5,88.8333 224.5,97.5C 220.422,96.2981 216.422,94.7981 212.5,93C 202.32,88.0475 192.32,82.7142 182.5,77C 194.907,72.3866 207.407,67.8866 220,63.5C 221.973,65.9396 223.473,68.6063 224.5,71.5 Z"/></g>
<g><path style="opacity:1" fill="#eff6ff" d="M 224.5,30.5 C 224.5,31.8333 224.5,33.1667 224.5,34.5C 212.369,29.5183 200.536,23.8517 189,17.5C 188.833,17.8333 188.667,18.1667 188.5,18.5C 200.181,32.1774 212.181,45.5107 224.5,58.5C 224.5,62.8333 224.5,67.1667 224.5,71.5C 223.473,68.6063 221.973,65.9396 220,63.5C 207.407,67.8866 194.907,72.3866 182.5,77C 192.32,82.7142 202.32,88.0475 212.5,93C 216.422,94.7981 220.422,96.2981 224.5,97.5C 224.5,99.5 224.5,101.5 224.5,103.5C 208.105,95.0509 191.605,87.0509 175,79.5C 153.576,87.2421 132.076,95.0754 110.5,103C 100.322,123.521 90.3216,144.021 80.5,164.5C 87.9038,184.379 94.9038,204.379 101.5,224.5C 99.8333,224.5 98.1667,224.5 96.5,224.5C 89.8434,206.861 83.3434,189.195 77,171.5C 70.7738,183.453 64.9405,195.62 59.5,208C 70.0851,213.792 80.7517,219.292 91.5,224.5C 88.1667,224.5 84.8333,224.5 81.5,224.5C 76.9005,222.031 72.2338,219.865 67.5,218C 69.7059,220.037 71.7059,222.203 73.5,224.5C 71.1667,224.5 68.8333,224.5 66.5,224.5C 64.4847,221.162 61.9847,218.162 59,215.5C 58.502,218.482 58.3354,221.482 58.5,224.5C 56.8333,224.5 55.1667,224.5 53.5,224.5C 53.666,219.156 53.4994,213.823 53,208.5C 41.3333,195.5 29.6667,182.5 18,169.5C 24.583,187.746 31.083,206.079 37.5,224.5C 35.5,224.5 33.5,224.5 31.5,224.5C 25.2444,205.316 18.411,186.316 11,167.5C 10.3333,164.5 10.3333,161.5 11,158.5C 27.7272,122.712 44.7272,87.0453 62,51.5C 97.2761,38.7254 132.443,25.7254 167.5,12.5C 170.311,12.1743 172.978,11.3409 175.5,10C 178.167,9.33333 180.833,9.33333 183.5,10C 196.906,17.3694 210.572,24.2028 224.5,30.5 Z"/></g>
<g><path style="opacity:1" fill="#1d4ed8" d="M 144.5,59.5 C 146.265,58.5386 148.265,58.2053 150.5,58.5C 171.21,59.0424 191.877,60.209 212.5,62C 200.748,66.2879 188.914,70.4545 177,74.5C 166.124,69.6459 155.29,64.6459 144.5,59.5 Z"/></g>
<g><path style="opacity:1" fill="#1e40af" d="M 131.5,58.5 C 144.58,64.3913 157.58,70.5579 170.5,77C 151.805,83.9518 133.138,90.7851 114.5,97.5C 114.167,97.1667 113.833,96.8333 113.5,96.5C 119.511,83.8116 125.511,71.1449 131.5,58.5 Z"/></g>
<g><path style="opacity:1" fill="#93c5fd" d="M 150.5,58.5 C 148.265,58.2053 146.265,58.5386 144.5,59.5C 143.527,59.0133 142.527,58.5133 141.5,58C 144.696,57.1955 147.696,57.3622 150.5,58.5 Z"/></g>
<g><path style="opacity:1" fill="#1e3a8a" d="M 66.5,54.5 C 86.5072,55.0837 106.507,55.917 126.5,57C 106.323,75.5094 85.8227,93.6761 65,111.5C 65.1942,92.5018 65.6942,73.5018 66.5,54.5 Z"/></g>
<g><path style="opacity:1" fill="#1e3a8a" d="M 171.5,14.5 C 173.379,14.3932 173.712,14.8932 172.5,16C 158.797,28.7054 144.797,41.0387 130.5,53C 110.486,53.0551 90.4864,52.3884 70.5,51C 104.309,38.8998 137.976,26.7332 171.5,14.5 Z"/></g>
<g><path style="opacity:1" fill="#1e3a8a" d="M 177.5,15.5 C 179.716,16.2026 181.549,17.5359 183,19.5C 194.129,32.6314 205.629,45.4647 217.5,58C 190.172,57.3329 162.839,55.9996 135.5,54C 149.696,41.3007 163.696,28.4674 177.5,15.5 Z"/></g>
<g><path style="opacity:1" fill="#1e3a8a" d="M 224.5,103.5 C 224.5,143.833 224.5,184.167 224.5,224.5C 183.5,224.5 142.5,224.5 101.5,224.5C 94.9038,204.379 87.9038,184.379 80.5,164.5C 90.3216,144.021 100.322,123.521 110.5,103C 132.076,95.0754 153.576,87.2421 175,79.5C 191.605,87.0509 208.105,95.0509 224.5,103.5 Z"/></g>
<g><path style="opacity:1" fill="#1e40af" d="M 122.5,64.5 C 123.043,64.56 123.376,64.8933 123.5,65.5C 117.755,77.3233 111.755,88.9899 105.5,100.5C 93.4873,105.025 81.4873,109.192 69.5,113C 87.0616,96.7002 104.728,80.5336 122.5,64.5 Z"/></g>
<g><path style="opacity:1" fill="#1e3a8a" d="M 60.5,63.5 C 60.9901,81.7132 60.1568,100.047 58,118.5C 45.6345,129.608 33.1345,140.608 20.5,151.5C 20.1667,151.333 19.8333,151.167 19.5,151C 33.5485,121.854 47.2152,92.6872 60.5,63.5 Z"/></g>
<g><path style="opacity:1" fill="#1e3a8a" d="M 100.5,105.5 C 101.675,105.281 102.675,105.614 103.5,106.5C 94.9689,123.562 86.4689,140.562 78,157.5C 73.383,144.48 68.883,131.48 64.5,118.5C 76.1451,114.682 87.8118,110.848 99.5,107C 100.056,106.617 100.389,106.117 100.5,105.5 Z"/></g>
<g><path style="opacity:1" fill="#bfdbfe" d="M 64.5,135.5 C 63.8333,136.5 63.1667,137.5 62.5,138.5C 62.3367,136.143 62.5034,133.81 63,131.5C 63.7914,132.745 64.2914,134.078 64.5,135.5 Z"/></g>
<g><path style="opacity:1" fill="#1e40af" d="M 56.5,123.5 C 57.7773,124.694 58.4439,126.36 58.5,128.5C 56.8339,153.158 55.3339,177.825 54,202.5C 41.1472,188.615 28.6472,174.448 16.5,160C 30.029,147.967 43.3624,135.801 56.5,123.5 Z"/></g>
<g><path style="opacity:1" fill="#1e3a8a" d="M 64.5,135.5 C 67.9827,145.089 71.3161,154.755 74.5,164.5C 70.044,174.084 65.544,183.751 61,193.5C 61.2298,175.17 61.7298,156.836 62.5,138.5C 63.1667,137.5 63.8333,136.5 64.5,135.5 Z"/></g>
<g><path style="opacity:1" fill="#1e3a8a" d="M 96.5,224.5 C 94.8333,224.5 93.1667,224.5 91.5,224.5C 80.7517,219.292 70.0851,213.792 59.5,208C 64.9405,195.62 70.7738,183.453 77,171.5C 83.3434,189.195 89.8434,206.861 96.5,224.5 Z"/></g>
<g><path style="opacity:1" fill="#1e3a8a" d="M 53.5,224.5 C 48.1667,224.5 42.8333,224.5 37.5,224.5C 31.083,206.079 24.583,187.746 18,169.5C 29.6667,182.5 41.3333,195.5 53,208.5C 53.4994,213.823 53.666,219.156 53.5,224.5 Z"/></g>
<g><path style="opacity:1" fill="#1e3a8a" d="M 66.5,224.5 C 63.8333,224.5 61.1667,224.5 58.5,224.5C 58.3354,221.482 58.502,218.482 59,215.5C 61.9847,218.162 64.4847,221.162 66.5,224.5 Z"/></g>
<g><path style="opacity:1" fill="#1d4ed8" d="M 81.5,224.5 C 78.8333,224.5 76.1667,224.5 73.5,224.5C 71.7059,222.203 69.7059,220.037 67.5,218C 72.2338,219.865 76.9005,222.031 81.5,224.5 Z"/></g>
</svg>
